<svg id="Capa_1" data-name="Capa 1" xmlns="http://www.w3.org/2000/svg" viewBox="0 0 241.5 45.4"><defs><style>.cls-1,.cls-2{fill:#0167f3;}.cls-2{font-size:31.13px;}.cls-2,.cls-3{font-family:BerlinSansFBDemi-Bold, Berlin Sans FB Demi;font-weight:700;}.cls-3{font-size:27.15px;}</style></defs><title>omega_logos</title><path class="cls-1" d="M32.2,43.1a5.2,5.2,0,1,0,10.4,0,5.23,5.23,0,0,0-5.2-5.2A5.29,5.29,0,0,0,32.2,43.1Zm3.4,0a1.8,1.8,0,0,1,3.6,0,1.8,1.8,0,1,1-3.6,0Z" transform="translate(-2.5 -2.9)"/><path class="cls-1" d="M44.2,43.1a5.2,5.2,0,1,0,10.4,0,5.23,5.23,0,0,0-5.2-5.2A5.29,5.29,0,0,0,44.2,43.1Zm3.4,0a1.8,1.8,0,0,1,3.6,0,1.8,1.8,0,1,1-3.6,0Z" transform="translate(-2.5 -2.9)"/><path class="cls-1" d="M61.8,16.1a2.87,2.87,0,0,0-2.2-1h-32L25.2,4.7a2.23,2.23,0,0,0-2.1-1.8H17.2a2,2,0,0,0-2.1,2A2,2,0,0,0,17.2,7h4.3l5.9,26.8a2.23,2.23,0,0,0,2.1,1.8H54.7a2.64,2.64,0,0,0,2.8-2.2l4.7-14.5A2.31,2.31,0,0,0,61.8,16.1ZM37.9,31.5H31.4l-1.2-5.8h7.6v5.8Zm0-7.8h-8L29,19.2h8.9Zm8.7,7.8H39.7V25.7h6.9Zm0-7.8H39.7V19.2h6.9Zm7.3,7.8H48.6V25.7h7.2Zm2.5-7.8H48.5V19.2h9.4Z" transform="translate(-2.5 -2.9)"/><path class="cls-1" d="M24.9,35.4c0,.1,0,.2-.1.2h-5a1.49,1.49,0,0,1-1.1-2.5,1.28,1.28,0,0,1,1-.4h1.8a1.53,1.53,0,0,0,1-.4,2.09,2.09,0,0,0,.4-.6,1.61,1.61,0,0,0-1.6-1.9H10.5a1.49,1.49,0,0,1-1.1-2.5,1.28,1.28,0,0,1,1-.4h5a1.53,1.53,0,0,0,1-.4,2.09,2.09,0,0,0,.4-.6A1.61,1.61,0,0,0,15.2,24H13.7a1.49,1.49,0,0,1-1.1-2.5,1.28,1.28,0,0,1,1-.4h4.9a1.53,1.53,0,0,0,1-.4,1.28,1.28,0,0,0,.4-1,1.51,1.51,0,0,0-1.3-1.5H4a1.49,1.49,0,0,1-1.1-2.5,1.28,1.28,0,0,1,1-.4h9.8a1.27,1.27,0,0,0,.9-.4,2.09,2.09,0,0,0,.4-.6,1.61,1.61,0,0,0-1.6-1.9H10.8A1.49,1.49,0,0,1,9.7,9.9a1.28,1.28,0,0,1,1-.4h8.2c.1,0,.1,0,.1.1Z" transform="translate(-2.5 -2.9)"/><path class="cls-1" d="M17.3,34.1a1.53,1.53,0,0,1-.4,1,1.28,1.28,0,0,1-1,.4H12.8A1.47,1.47,0,0,1,11.3,34a1.53,1.53,0,0,1,.4-1,1.28,1.28,0,0,1,1-.4h3.1A1.61,1.61,0,0,1,17.3,34.1Z" transform="translate(-2.5 -2.9)"/><path class="cls-1" d="M10.8,22.5a1.53,1.53,0,0,1-.4,1,1.16,1.16,0,0,1-1,.4h-3A1.36,1.36,0,0,1,5,22.5a1.53,1.53,0,0,1,.4-1,1.28,1.28,0,0,1,1-.4h3A1.43,1.43,0,0,1,10.8,22.5Z" transform="translate(-2.5 -2.9)"/><text x="-2.5" y="-2.9"/><text class="cls-2" transform="translate(59.98 35)">Omega</text><text class="cls-3" transform="translate(160.25 35.29)">Genius</text></svg>