<?xml version="1.0" encoding="utf-8"?>
<!-- Generator: Adobe Illustrator 24.0.2, SVG Export Plug-In . SVG Version: 6.00 Build 0)  -->
<svg version="1.1" id="Capa_1" xmlns="http://www.w3.org/2000/svg" xmlns:xlink="http://www.w3.org/1999/xlink" x="0px" y="0px"
	 viewBox="0 0 326.1 45.4" style="enable-background:new 0 0 326.1 45.4;" xml:space="preserve">
<style type="text/css">
	.st0{fill:#0167F3;}
	.st1{font-family:'CooperBlack';}
	.st2{font-size:36.781px;}
	.st3{enable-background:new    ;}
	.st4{font-family:'BerlinSansFB-Bold';}
	.st5{font-size:35.1807px;}
	.st6{fill:#FFFFFF;}
</style>
<title>omega_logos</title>
<path class="st0" d="M29.7,40.2c0,2.9,2.3,5.2,5.2,5.2s5.2-2.3,5.2-5.2c0,0,0,0,0,0c0-2.9-2.3-5.2-5.2-5.2
	C32,35,29.7,37.3,29.7,40.2z M33.1,40.2c0-1,0.8-1.8,1.8-1.8c1,0,1.8,0.8,1.8,1.8c0,1-0.8,1.8-1.8,1.8C33.9,42,33.1,41.2,33.1,40.2
	C33.1,40.2,33.1,40.2,33.1,40.2z"/>
<path class="st0" d="M41.7,40.2c0,2.9,2.3,5.2,5.2,5.2s5.2-2.3,5.2-5.2c0,0,0,0,0,0c0-2.9-2.3-5.2-5.2-5.2
	C44,35,41.7,37.3,41.7,40.2z M45.1,40.2c0-1,0.8-1.8,1.8-1.8c1,0,1.8,0.8,1.8,1.8c0,1-0.8,1.8-1.8,1.8C45.9,42,45.1,41.2,45.1,40.2
	C45.1,40.2,45.1,40.2,45.1,40.2z"/>
<path class="st0" d="M59.3,13.2c-0.6-0.6-1.4-1-2.2-1h-32L22.7,1.8c-0.2-1-1.1-1.8-2.1-1.8h-5.9c-1.1-0.1-2,0.8-2.1,1.9
	c0,0,0,0.1,0,0.1c-0.1,1.1,0.8,2,1.9,2.1c0.1,0,0.1,0,0.2,0H19l5.9,26.8c0.2,1,1.1,1.8,2.1,1.8h25.2c1.4,0.1,2.6-0.9,2.8-2.2
	L59.7,16C60.2,15.1,60.1,13.9,59.3,13.2z M35.4,28.6h-6.5l-1.2-5.8h7.6v5.8H35.4z M35.4,20.8h-8l-0.9-4.5h8.9V20.8z M44.1,28.6h-6.9
	v-5.8h6.9V28.6z M44.1,20.8h-6.9v-4.5h6.9V20.8z M51.4,28.6h-5.3v-5.8h7.2L51.4,28.6z M53.9,20.8H46v-4.5h9.4L53.9,20.8z"/>
<path class="st0" d="M22.4,32.5c0,0.1,0,0.2-0.1,0.2h-5c-0.8,0-1.5-0.7-1.5-1.5c0-0.4,0.1-0.7,0.4-1c0.3-0.3,0.6-0.4,1-0.4H19
	c0.4,0,0.7-0.1,1-0.4c0.2-0.2,0.3-0.4,0.4-0.6c0.2-0.9-0.4-1.7-1.3-1.9c-0.1,0-0.2,0-0.3,0H8c-0.8,0-1.5-0.7-1.5-1.5
	c0-0.4,0.1-0.7,0.4-1c0.3-0.3,0.6-0.4,1-0.4h5c0.4,0,0.7-0.1,1-0.4c0.2-0.2,0.3-0.4,0.4-0.6c0.2-0.9-0.4-1.7-1.3-1.9
	c-0.1,0-0.2,0-0.3,0h-1.5c-0.8,0-1.5-0.7-1.5-1.5c0-0.4,0.1-0.7,0.4-1c0.3-0.3,0.6-0.4,1-0.4H16c0.4,0,0.7-0.1,1-0.4
	c0.3-0.3,0.4-0.6,0.4-1c0-0.8-0.6-1.4-1.3-1.5H1.5c-0.8,0-1.5-0.7-1.5-1.5c0-0.4,0.1-0.7,0.4-1c0.3-0.3,0.6-0.4,1-0.4h9.8
	c0.3,0,0.7-0.2,0.9-0.4c0.2-0.2,0.3-0.4,0.4-0.6c0.2-0.9-0.4-1.7-1.3-1.9c-0.1,0-0.2,0-0.3,0H8.3C7.5,9.5,6.8,8.8,6.8,8
	c0-0.4,0.1-0.7,0.4-1c0.3-0.3,0.6-0.4,1-0.4h8.2c0.1,0,0.1,0,0.1,0.1L22.4,32.5z"/>
<path class="st0" d="M14.8,31.2c0,0.4-0.1,0.7-0.4,1c-0.3,0.3-0.6,0.4-1,0.4h-3.1c-0.8,0-1.5-0.6-1.5-1.4c0,0,0,0,0-0.1
	c0-0.4,0.1-0.7,0.4-1c0.3-0.3,0.6-0.4,1-0.4h3.1C14.1,29.8,14.7,30.4,14.8,31.2z"/>
<path class="st0" d="M8.3,19.6c0,0.4-0.1,0.7-0.4,1c-0.2,0.3-0.6,0.4-1,0.4h-3c-0.8,0-1.4-0.6-1.4-1.3c0,0,0-0.1,0-0.1
	c0-0.4,0.1-0.7,0.4-1c0.3-0.3,0.6-0.4,1-0.4h3C7.7,18.2,8.3,18.8,8.3,19.6z"/>
<text transform="matrix(1 0 0 1 59.9805 34.4974)" class="st0 st1 st2">Omega</text>
<text transform="matrix(1 0 0 1 170.2129 34.2992)" class="st3"><tspan x="0" y="0" class="st4 st5">  </tspan><tspan x="17.6" y="0" class="st6 st1 st5">Genius</tspan></text>
</svg>
